<svg width="60" height="60" viewBox="0 0 60 60" fill="none" xmlns="http://www.w3.org/2000/svg">
<path d="M0 30C0 13.4315 13.4315 0 30 0C46.5685 0 60 13.4315 60 30C60 46.5685 46.5685 60 30 60C13.4315 60 0 46.5685 0 30Z" fill="white"/>
<path d="M38.4575 24.2523V40.4861C38.4575 41.9247 39.9791 43.0909 41.8554 43.0909C43.7318 43.0909 45.2534 41.9247 45.2534 40.4861V24.2523C45.2534 22.8137 43.7318 21.6475 41.8554 21.6475C39.9791 21.6475 38.4575 22.8137 38.4575 24.2523Z" fill="#F06A6A"/>
<path d="M38.4575 32.8073V40.4861C38.4575 41.9247 39.9791 43.0909 41.8554 43.0909C43.7318 43.0909 45.2534 41.9247 45.2534 40.4861V32.8073C45.2534 31.3687 43.7318 30.2025 41.8554 30.2025C39.9791 30.2025 38.4575 31.3687 38.4575 32.8073Z" fill="#F06A6A"/>
<path d="M26.6021 19.5135V35.7473C26.6021 37.1859 28.1236 38.3522 30 38.3522C31.8764 38.3522 33.3979 37.1859 33.3979 35.7473V19.5135C33.3979 18.075 31.8764 16.9091 30 16.9091C28.1236 16.9091 26.6021 18.075 26.6021 19.5135Z" fill="#F06A6A"/>
<path d="M26.6021 31.976V35.7473C26.6021 37.1859 28.1236 38.3522 30 38.3522C31.8764 38.3522 33.3979 37.1859 33.3979 35.7473V31.976C33.3979 30.5374 31.8764 29.3711 30 29.3711C28.1236 29.3711 26.6021 30.5374 26.6021 31.976Z" fill="#F06A6A"/>
<path d="M14.7467 24.2523V40.4861C14.7467 41.9247 16.2682 43.0909 18.1446 43.0909C20.021 43.0909 21.5421 41.9247 21.5421 40.4861V24.2523C21.5421 22.8137 20.021 21.6475 18.1446 21.6475C16.2682 21.6475 14.7467 22.8137 14.7467 24.2523Z" fill="#F06A6A"/>
<path d="M14.7467 24.2523V32.8769C14.7467 34.3154 16.2682 35.4817 18.1446 35.4817C20.021 35.4817 21.5421 34.3154 21.5421 32.8769V24.2523C21.5421 22.8137 20.021 21.6475 18.1446 21.6475C16.2682 21.6475 14.7467 22.8137 14.7467 24.2523Z" fill="#F06A6A"/>
</svg>
