<svg width="144" height="52" viewBox="0 0 144 52" fill="none" xmlns="http://www.w3.org/2000/svg">
<path d="M54.2809 12.6905C56.475 12.6905 58.3864 13.0239 60.0151 13.6908C61.6437 14.3577 62.9105 15.3406 63.8153 16.6392C64.7201 17.9379 65.1725 19.5087 65.1725 21.3514V31.4338H59.6758V27.0113H48.8181V31.4338H43.3893V21.3514C43.3893 19.5087 43.8417 17.9379 44.7465 16.6392C45.6513 15.3406 46.9181 14.3577 48.5467 13.6908C50.1754 13.0239 52.0868 12.6905 54.2809 12.6905ZM59.6758 23.589V20.9565C59.6758 19.4297 59.1895 18.2802 58.2168 17.508C57.2441 16.7182 55.9209 16.3233 54.247 16.3233C52.5505 16.3233 51.2159 16.7182 50.2432 17.508C49.2932 18.2802 48.8181 19.4297 48.8181 20.9565V23.589H59.6758Z" fill="black"/>
<path d="M91.8381 13.0064V31.4338H86.5111V29.1962C84.8824 30.8986 82.4847 31.7497 79.3179 31.7497C76.513 31.7497 74.3189 31.0653 72.7355 29.6964C71.1747 28.31 70.3943 26.3444 70.3943 23.7996V13.0064H75.8909V23.668C75.8909 25.1422 76.332 26.2566 77.2142 27.0113C78.119 27.7484 79.3405 28.1169 80.8787 28.1169C82.53 28.1169 83.8532 27.722 84.8485 26.9323C85.8438 26.125 86.3414 24.9404 86.3414 23.3784V13.0064H91.8381Z" fill="black"/>
<path d="M112.603 31.4338L108.023 26.3005H102.967V31.4338H97.4702V13.0064H107.751C109.855 13.0064 111.676 13.2784 113.214 13.8225C114.775 14.3665 115.973 15.1387 116.81 16.1391C117.647 17.1394 118.066 18.324 118.066 19.6929C118.066 21.0618 117.636 22.2465 116.777 23.2468C115.94 24.2296 114.741 24.9842 113.18 25.5107L118.507 31.4338H112.603ZM112.501 19.6929C112.501 18.6575 112.072 17.8677 111.212 17.3237C110.352 16.7621 109.097 16.4813 107.446 16.4813H102.967V22.9046H107.446C109.097 22.9046 110.352 22.6238 111.212 22.0622C112.072 21.5006 112.501 20.7108 112.501 19.6929Z" fill="black"/>
<path d="M133.109 12.6905C135.303 12.6905 137.214 13.0239 138.843 13.6908C140.472 14.3577 141.738 15.3406 142.643 16.6392C143.548 17.9379 144 19.5087 144 21.3514V31.4338H138.504V27.0113H127.646V31.4338H122.217V21.3514C122.217 19.5087 122.67 17.9379 123.574 16.6392C124.479 15.3406 125.746 14.3577 127.375 13.6908C129.003 13.0239 130.915 12.6905 133.109 12.6905ZM138.504 23.589V20.9565C138.504 19.4297 138.017 18.2802 137.045 17.508C136.072 16.7182 134.749 16.3233 133.075 16.3233C131.378 16.3233 130.044 16.7182 129.071 17.508C128.121 18.2802 127.646 19.4297 127.646 20.9565V23.589H138.504Z" fill="black"/>
<path d="M107.046 44.0001C105.911 44.0001 104.996 43.9531 104.3 43.8592C103.604 43.7653 103.072 43.6108 102.704 43.3956C102.336 43.1805 102.087 42.8949 101.955 42.5389C101.829 42.179 101.766 41.735 101.766 41.2068H103.219C103.219 41.598 103.254 41.913 103.324 42.1516C103.4 42.3902 103.564 42.5741 103.816 42.7032C104.068 42.8284 104.456 42.9145 104.981 42.9614C105.505 43.0044 106.219 43.026 107.121 43.026H109.148C110.051 43.026 110.764 43.0044 111.289 42.9614C111.813 42.9145 112.201 42.8284 112.453 42.7032C112.706 42.5741 112.867 42.3902 112.937 42.1516C113.013 41.913 113.051 41.598 113.051 41.2068C113.051 40.8587 113.016 40.579 112.945 40.3677C112.874 40.1565 112.716 39.9961 112.469 39.8865C112.222 39.777 111.838 39.7046 111.319 39.6694C110.8 39.6303 110.089 39.6107 109.186 39.6107H106.932V38.666H109.489C110.316 38.666 110.968 38.6464 111.448 38.6073C111.927 38.5681 112.279 38.4977 112.506 38.396C112.738 38.2904 112.887 38.1398 112.953 37.9442C113.018 37.7447 113.051 37.4865 113.051 37.1696C113.051 36.794 113.003 36.4987 112.907 36.2835C112.816 36.0683 112.632 35.9119 112.355 35.8141C112.078 35.7162 111.667 35.6537 111.122 35.6263C110.583 35.5989 109.862 35.5852 108.959 35.5852H107.31C106.408 35.5852 105.684 35.5989 105.14 35.6263C104.6 35.6537 104.192 35.7162 103.914 35.8141C103.637 35.9119 103.45 36.0683 103.355 36.2835C103.264 36.4987 103.219 36.794 103.219 37.1696H101.766C101.766 36.6571 101.839 36.2346 101.986 35.9021C102.137 35.5695 102.407 35.3094 102.795 35.1216C103.188 34.9338 103.743 34.8028 104.459 34.7285C105.175 34.6502 106.1 34.6111 107.235 34.6111H109.035C110.169 34.6111 111.095 34.6502 111.811 34.7285C112.527 34.8028 113.079 34.9338 113.467 35.1216C113.86 35.3094 114.13 35.5695 114.276 35.9021C114.427 36.2346 114.503 36.6571 114.503 37.1696C114.503 37.776 114.354 38.2395 114.057 38.5603C113.764 38.8811 113.386 39.0748 112.922 39.1413C113.391 39.2156 113.772 39.421 114.064 39.7574C114.357 40.0939 114.503 40.577 114.503 41.2068C114.503 41.735 114.438 42.179 114.306 42.5389C114.18 42.8949 113.933 43.1805 113.565 43.3956C113.197 43.6108 112.665 43.7653 111.969 43.8592C111.274 43.9531 110.358 44.0001 109.224 44.0001H107.046Z" fill="#F06A6A"/>
<path d="M121.953 44.0001C120.819 44.0001 119.903 43.9531 119.208 43.8592C118.512 43.7653 117.98 43.6108 117.612 43.3956C117.244 43.1805 116.994 42.8949 116.863 42.5389C116.737 42.179 116.674 41.735 116.674 41.2068V37.2283C116.674 36.7158 116.747 36.2913 116.893 35.9549C117.044 35.6145 117.314 35.3466 117.702 35.151C118.096 34.9554 118.65 34.8165 119.366 34.7343C120.082 34.6522 121.008 34.6111 122.142 34.6111H123.942C125.057 34.6111 125.957 34.6502 126.642 34.7285C127.333 34.8028 127.86 34.9338 128.223 35.1216C128.586 35.3094 128.831 35.5695 128.957 35.9021C129.088 36.2346 129.153 36.6571 129.153 37.1696H127.701C127.701 36.794 127.663 36.4987 127.588 36.2835C127.517 36.0683 127.356 35.9119 127.104 35.8141C126.857 35.7162 126.476 35.6537 125.962 35.6263C125.447 35.5989 124.749 35.5852 123.867 35.5852H122.218C121.315 35.5852 120.592 35.6028 120.047 35.638C119.508 35.6693 119.099 35.7378 118.822 35.8434C118.545 35.949 118.358 36.1133 118.262 36.3363C118.171 36.5554 118.126 36.8527 118.126 37.2283V39.2821C118.585 38.8713 119.419 38.666 120.629 38.666H124.623C125.677 38.666 126.521 38.7129 127.157 38.8068C127.792 38.8968 128.271 39.0435 128.594 39.2469C128.921 39.4464 129.138 39.7085 129.244 40.0332C129.355 40.354 129.411 40.7452 129.411 41.2068C129.411 41.735 129.345 42.179 129.214 42.5389C129.088 42.8949 128.841 43.1805 128.473 43.3956C128.105 43.6108 127.573 43.7653 126.877 43.8592C126.181 43.9531 125.266 44.0001 124.131 44.0001H121.953ZM127.958 41.2068C127.958 40.8587 127.923 40.579 127.853 40.3677C127.782 40.1565 127.623 39.9961 127.376 39.8865C127.129 39.777 126.746 39.7046 126.226 39.6694C125.707 39.6303 124.996 39.6107 124.094 39.6107H121.991C121.088 39.6107 120.377 39.6303 119.858 39.6694C119.339 39.7046 118.955 39.777 118.708 39.8865C118.461 39.9961 118.302 40.1565 118.232 40.3677C118.161 40.579 118.126 40.8587 118.126 41.2068C118.126 41.598 118.161 41.913 118.232 42.1516C118.308 42.3902 118.471 42.5741 118.724 42.7032C118.976 42.8284 119.364 42.9145 119.888 42.9614C120.413 43.0044 121.126 43.026 122.029 43.026H124.056C124.958 43.026 125.672 43.0044 126.196 42.9614C126.721 42.9145 127.109 42.8284 127.361 42.7032C127.613 42.5741 127.774 42.3902 127.845 42.1516C127.921 41.913 127.958 41.598 127.958 41.2068Z" fill="#F06A6A"/>
<path d="M131.77 39.4992V34.7989H143.486V35.7378H133.223V38.6894C133.676 38.2826 134.508 38.0791 135.718 38.0791H139.213C140.267 38.0791 141.111 38.1261 141.746 38.22C142.382 38.31 142.861 38.4567 143.184 38.6601C143.511 38.8596 143.728 39.1217 143.834 39.4464C143.945 39.7672 144 40.1584 144 40.62V41.2068C144 41.735 143.935 42.179 143.804 42.5389C143.678 42.8988 143.431 43.1863 143.063 43.4015C142.694 43.6128 142.162 43.7653 141.467 43.8592C140.771 43.9531 139.856 44.0001 138.721 44.0001H136.853C135.718 44.0001 134.803 43.9531 134.107 43.8592C133.412 43.7653 132.88 43.6108 132.512 43.3956C132.143 43.1805 131.894 42.8949 131.763 42.5389C131.637 42.179 131.574 41.735 131.574 41.2068H133.026C133.026 41.598 133.061 41.913 133.132 42.1516C133.207 42.3902 133.371 42.5741 133.623 42.7032C133.876 42.8284 134.264 42.9145 134.788 42.9614C135.313 43.0044 136.026 43.026 136.929 43.026H138.646C139.548 43.026 140.262 43.0044 140.786 42.9614C141.31 42.9184 141.699 42.8343 141.951 42.7091C142.203 42.58 142.364 42.3961 142.435 42.1575C142.51 41.9149 142.548 41.598 142.548 41.2068V40.62C142.548 40.2719 142.513 39.9921 142.442 39.7809C142.372 39.5696 142.213 39.4092 141.966 39.2997C141.719 39.1902 141.336 39.1178 140.816 39.0826C140.297 39.0435 139.586 39.0239 138.683 39.0239H137.08C135.955 39.0239 135.126 39.0552 134.592 39.1178C134.057 39.1765 133.689 39.3036 133.487 39.4992H131.77Z" fill="#F06A6A"/>
<path d="M24.1776 15.5137V31.7475C24.1776 33.186 25.6992 34.3523 27.5756 34.3523C29.4519 34.3523 30.9735 33.186 30.9735 31.7475V15.5137C30.9735 14.0751 29.4519 12.9089 27.5756 12.9089C25.6992 12.9089 24.1776 14.0751 24.1776 15.5137Z" fill="#F06A6A"/>
<path d="M24.1776 24.0687V31.7475C24.1776 33.186 25.6992 34.3523 27.5756 34.3523C29.4519 34.3523 30.9735 33.186 30.9735 31.7475V24.0687C30.9735 22.6301 29.4519 21.4639 27.5756 21.4639C25.6992 21.4639 24.1776 22.6301 24.1776 24.0687Z" fill="#F06A6A"/>
<path d="M12.3222 10.7749V27.0087C12.3222 28.4473 13.8438 29.6135 15.7201 29.6135C17.5965 29.6135 19.1181 28.4473 19.1181 27.0087V10.7749C19.1181 9.33635 17.5965 8.17045 15.7201 8.17045C13.8438 8.17045 12.3222 9.33635 12.3222 10.7749Z" fill="#F06A6A"/>
<path d="M12.3222 23.2373V27.0087C12.3222 28.4473 13.8438 29.6135 15.7201 29.6135C17.5965 29.6135 19.1181 28.4473 19.1181 27.0087V23.2373C19.1181 21.7988 17.5965 20.6325 15.7201 20.6325C13.8438 20.6325 12.3222 21.7988 12.3222 23.2373Z" fill="#F06A6A"/>
<path d="M0.466797 15.5137V31.7475C0.466797 33.186 1.98836 34.3523 3.86472 34.3523C5.74108 34.3523 7.26221 33.186 7.26221 31.7475V15.5137C7.26221 14.0751 5.74108 12.9089 3.86472 12.9089C1.98836 12.9089 0.466797 14.0751 0.466797 15.5137Z" fill="#F06A6A"/>
<path d="M0.466797 15.5137V24.1382C0.466797 25.5768 1.98836 26.743 3.86472 26.743C5.74108 26.743 7.26221 25.5768 7.26221 24.1382V15.5137C7.26221 14.0751 5.74108 12.9089 3.86472 12.9089C1.98836 12.9089 0.466797 14.0751 0.466797 15.5137Z" fill="#F06A6A"/>
</svg>
